<svg xmlns="http://www.w3.org/2000/svg" width="500" height="500">
  <path fill="#8f8f90" d="M62.5 311.38c4.53.8 5.73 1.97 8.5 5.62.7 3.2.63 6.32.57 9.58l.01 2.8c.02 2.96 0 5.91-.02 8.87-.01 2.94-.02 5.88 0 8.82 0 1.83 0 3.66-.04 5.48.04 8.92 3.45 15.23 8.48 22.45l1.06 2.31c.9 2.05.9 2.05 3.94 2.69v2l2.69.81C91 384 91 384 93.3 385.5c7.27 4.06 15.6 3.79 23.72 3.75l3.6.01h20.4c6.92.02 13.83.02 20.74.01h24.18l45.74-.01h39.22a41113.34 41113.34 0 0 0 50.45 0h2.42l16.84.01a8641.78 8641.78 0 0 0 30.99 0c3.79 0 7.57 0 11.36-.02l3.32.02c12.9-.07 22.25-3.09 31.96-11.83 10.77-11.93 10.53-24.26 10.31-39.44a641.4 641.4 0 0 1-.06-8.79c0-1.8-.02-3.61-.07-5.42 0-4.4.14-6.23 2.88-9.84 2.7-1.95 2.7-1.95 6.2-2.51 4.24.68 5.64 1.35 8.5 4.56.76 3.4.7 6.74.66 10.21l.02 3.06c0 2.13 0 4.26-.03 6.4-.02 3.23 0 6.45.03 9.68.02 11.18-.29 20.6-5.68 30.65l-1.21 2.32A95.22 95.22 0 0 1 437 383h-2v3h-2l-.69 1.69c-5.02 8.85-16.08 14-25.31 17.31-7.45 1.94-14.62 2.29-22.28 2.26l-3.64.01h-9.92l-10.73.02-20.99.01h-19.52l-4.95.01h-46.31l-42.33.03c-14.5.02-29 .03-43.51.02-8.14 0-16.27 0-24.4.02h-31.38c-3.83.02-7.67 0-11.5 0-1.1 0-2.2 0-3.34.02-15.03-.1-29.75-4.87-41.08-14.96A21.36 21.36 0 0 1 67 386h-2c-1.29-2.1-2.55-4.2-3.81-6.31l-1.08-1.75c-6.75-11.45-6.64-23.37-6.61-36.3 0-3.03-.04-6.06-.09-9.1v-5.81l-.05-2.74c.05-4.46.2-6.4 2.96-10.06C59 312 59 312 62.5 311.37Z"/>
  <path fill="#8f8f90" d="M254 93c3.2 2.36 4.34 4.16 5 8 .1 2.64.13 5.25.12 7.88v16.24l-.02 15.66v16.37l-.03 30.99-.02 35.28L259 296h2l2.5-2.5 2.5-2.5h2v-2c1.88-2.13 1.88-2.13 4-4h2l.81-1.81A16.03 16.03 0 0 1 279 278h2v-2h2v-2h2v-2c1.88-2.13 1.88-2.13 4-4h2l.8-1.79a21.7 21.7 0 0 1 4.51-5.65l1.74-1.68L300 257l5-5 11-11 2.66-2.72c3.24-3.15 4.7-4.23 9.28-4.6 2.6.1 4.07.33 6.5 1.38 2.35 2.92 2.5 5.23 2.56 8.94-2.36 5.16-6.59 8.86-10.56 12.8l-2.33 2.34-7.61 7.6-5.29 5.28-12.5 12.47-11.39 11.37a16254.18 16254.18 0 0 1-24.89 24.85l-2.2 2.2-2.01 2-1.75 1.75c-2.02 1.84-3.4 2.33-6.1 2.84-3.69-.55-4.43-1.13-7.1-3.55l-2.13-1.94a421.57 421.57 0 0 1-9.92-9.66l-2.21-2.2a6232.55 6232.55 0 0 1-12.17-12.17l-10.43-10.44a14483.06 14483.06 0 0 0-23.71-23.7A7704.16 7704.16 0 0 0 170.87 254l-2.07-2.07-1.89-1.89-1.64-1.64c-1.9-2.09-2.27-3.39-2.65-6.21.38-3.19.38-3.19 2.38-6.06 3.35-2.38 5.07-2.87 9.08-2.63 3.24.84 4.83 3 6.92 5.5l2.31 1.69L185 242v2h2v2h2v2h2v2l1.69.69c2.97 1.69 5.03 3.78 7.31 6.31v2h2v2h2v2l1.94.81C208 265 208 265 209 268h2a30.24 30.24 0 0 1 4 4v2l4 2v2l3 1v2h2v2h2a262.5 262.5 0 0 1 4 5l2 1v2h2a17.04 17.04 0 0 1 3 3v2h2v2h2l-.01-3.1a39198 39198 0 0 1-.2-74.48c-.02-12-.05-24.01-.1-36.02-.03-10.46-.06-20.93-.07-31.4 0-5.53-.01-11.08-.04-16.62-.03-5.21-.04-10.43-.03-15.64 0-1.92-.01-3.83-.03-5.75-.02-2.6-.01-5.22 0-7.83l-.04-2.3c.06-4.9 1.02-7.43 4.52-10.86 3.1-1.55 5.6-1.3 9-1Z"/>
  <path fill="#8f8f90" d="M247 94c-1.88 3.88-1.88 3.88-3 5-.11 2.6-.15 5.18-.16 7.79l-.01 2.5-.04 8.37-.03 5.97-.06 16.26-.08 16.98-.14 32.17-.16 36.62L243 301l-4-2 2-1-.01-3.1a39198 39198 0 0 1-.2-74.48c-.02-12-.05-24.01-.1-36.02-.03-10.46-.06-20.93-.07-31.4 0-5.53-.01-11.08-.04-16.62-.03-5.21-.04-10.43-.03-15.64 0-1.92-.01-3.83-.03-5.75-.02-2.6-.01-5.22 0-7.83l-.04-2.3c.05-3.69.44-5.73 2.43-8.87C245 94 245 94 247 94Z"/>
  <path fill="#8f8f90" d="M247 93c6.34-.49 6.34-.49 9.38 1.75 3.15 4.36 2.76 8.92 2.74 14.13v16.24l-.02 15.66v16.37l-.03 30.99-.02 35.28L259 296h3c-.81 1.94-.81 1.94-2 4l-3 1-1-205-9-2v-1Z"/>
  <path fill="#8f8f90" d="M247 94c-1.88 3.88-1.88 3.88-3 5-.16 2.81-.26 5.6-.32 8.41l-.06 2.55a3174.78 3174.78 0 0 0-.31 13.58L243 137h-1c-.07-5.64-.13-11.28-.16-16.93l-.07-5.75-.06-8.28-.05-2.6V101l-.02-2.13c.6-3.08 2.17-4.88 5.36-4.88Z"/>
  <path fill="#8f8f90" d="M257 280h1l1 16h3c-.81 1.94-.81 1.94-2 4l-3 1v-21Z"/>
</svg>
