<?xml version="1.0" standalone="no"?>
<!DOCTYPE svg PUBLIC "-//W3C//DTD SVG 20010904//EN"
 "http://www.w3.org/TR/2001/REC-SVG-20010904/DTD/svg10.dtd">
<svg version="1.0" xmlns="http://www.w3.org/2000/svg"
 width="1721.000000pt" height="2048.000000pt" viewBox="0 0 1721.000000 2048.000000"
 preserveAspectRatio="xMidYMid meet">

<g transform="translate(0.000000,2048.000000) scale(0.100000,-0.100000)"
fill="#000000" stroke="none">
<path d="M9840 17064 c-46 -9 -116 -34 -180 -65 l-105 -51 -2996 -2996 c-3174
-3175 -3055 -3053 -3224 -3317 -345 -540 -511 -1228 -466 -1935 47 -727 298
-1370 729 -1865 112 -127 2707 -2715 2797 -2788 432 -350 980 -564 1610 -628
160 -17 579 -17 735 0 525 55 1019 229 1415 499 236 161 224 148 1624 1563
166 169 321 331 343 361 152 199 182 508 74 753 -103 233 -336 419 -580 464
-75 14 -226 14 -297 1 -84 -16 -185 -58 -260 -109 -57 -38 -737 -687 -1549
-1477 -74 -73 -155 -149 -180 -169 -164 -136 -362 -227 -605 -276 -137 -27
-436 -37 -583 -20 -270 33 -503 120 -683 255 -56 43 -500 483 -1351 1338 -696
701 -1287 1299 -1313 1329 -228 266 -348 646 -332 1054 11 280 70 498 196 717
82 143 83 143 1080 1153 179 182 624 632 989 1001 690 700 721 729 888 813
240 121 572 177 895 152 245 -20 424 -67 604 -159 159 -82 184 -104 825 -726
334 -323 426 -412 720 -697 339 -327 367 -352 460 -402 110 -60 204 -82 355
-81 114 0 140 4 215 28 116 39 184 75 271 144 134 106 246 285 283 449 20 90
21 239 1 335 -24 117 -91 241 -189 349 -166 184 -1623 1638 -1706 1704 -326
256 -691 441 -1082 546 -49 13 -87 27 -85 31 2 8 165 173 902 921 324 328 557
573 582 610 140 211 161 495 53 733 -152 336 -519 527 -880 458z"/>
<path d="M7674 9640 c-415 -109 -653 -576 -510 -998 78 -229 246 -400 467
-478 l84 -29 2985 -3 c3311 -3 3064 -8 3216 63 268 123 434 391 434 699 0 309
-156 570 -415 696 -155 76 127 70 -3200 69 -2886 0 -2992 -1 -3061 -19z"/>
</g>
</svg>
